<svg width="428" height="341" viewBox="0 0 428 341" fill="none" xmlns="http://www.w3.org/2000/svg">
<mask id="mask0_82_9" style="mask-type:alpha" maskUnits="userSpaceOnUse" x="0" y="0" width="428" height="341">
<rect width="428" height="341" fill="#D9D9D9"/>
</mask>
<g mask="url(#mask0_82_9)">
<path d="M-1148 0H772V175L-1148 576V0Z" fill="#FBFBFF"/>
<g opacity="0.1">
<path d="M415.617 60.9527L411.567 61.7733C407.951 62.5059 405.594 66.0774 406.33 69.7103C407.066 73.3427 410.627 75.7155 414.244 74.9829L434.169 70.9459C434.17 70.9457 434.171 70.9451 434.172 70.9449C432.488 71.2849 430.675 70.9844 429.136 69.9604L415.617 60.9527Z" fill="#7B78FB"/>
<path d="M416.567 60.7603L415.617 60.9528L429.136 69.9608C430.674 70.985 432.488 71.2854 434.173 70.9452C434.397 70.8999 434.615 70.8441 434.829 70.7769C434.837 70.7749 434.845 70.7709 434.852 70.7681C437.854 69.8213 439.809 66.8569 439.51 63.7101C439.509 63.7018 439.509 63.6939 439.509 63.6866C439.487 63.4621 439.453 63.2376 439.407 63.0125C439.4 62.9746 439.387 62.9378 439.378 62.9005C439.34 62.7205 439.297 62.5426 439.243 62.3706C439.216 62.2811 439.181 62.1934 439.149 62.1056C439.106 61.9833 439.065 61.8601 439.015 61.7419C438.987 61.6725 438.952 61.6068 438.92 61.5379C438.856 61.4005 438.794 61.2618 438.723 61.1296C438.706 61.0985 438.685 61.0697 438.669 61.0381C438.141 60.1065 437.405 59.3205 436.535 58.7394L436.543 58.7353L422.515 49.3881L422.881 51.1923C423.771 55.5896 420.945 59.8733 416.567 60.7603Z" fill="#0D4FE0"/>
<path d="M421.132 42.5589L422.513 49.3765L429.3 48.0015C433.049 47.242 435.468 43.5739 434.706 39.8088C433.943 36.0437 430.286 33.6072 426.537 34.3667C422.789 35.1261 420.369 38.7942 421.132 42.5589Z" fill="#7B78FB"/>
<path d="M396.731 40.2301C394.694 43.3176 395.546 47.5209 398.624 49.5712L415.617 60.9529L416.567 60.7604C420.944 59.8736 423.771 55.5896 422.88 51.1925L422.515 49.3883L406.03 38.3462C402.953 36.2956 398.769 37.1434 396.731 40.2301Z" fill="#25D3FB"/>
<path d="M347.854 74.6818L343.804 75.5023C340.187 76.2351 337.831 79.8064 338.567 83.4393C339.303 87.0717 342.864 89.4446 346.48 88.7119L366.405 84.6752C366.406 84.6749 366.407 84.6743 366.409 84.674C364.724 85.014 362.91 84.7137 361.373 83.6895L347.854 74.6818Z" fill="#7B78FB"/>
<path d="M348.803 74.4893L347.853 74.6818L361.372 83.6898C362.91 84.7141 364.724 85.0144 366.408 84.6744C366.632 84.629 366.851 84.5732 367.065 84.506C367.073 84.5039 367.08 84.5001 367.088 84.4972C370.09 83.5504 372.045 80.5859 371.745 77.4393C371.744 77.4309 371.744 77.423 371.744 77.4157C371.722 77.1912 371.688 76.9667 371.643 76.7416C371.635 76.7037 371.622 76.6669 371.614 76.6295C371.575 76.4496 371.532 76.2718 371.479 76.0996C371.451 76.0102 371.415 75.9226 371.384 75.8348C371.341 75.7124 371.301 75.589 371.251 75.4709C371.222 75.4016 371.187 75.336 371.155 75.2671C371.093 75.1294 371.03 74.9909 370.958 74.8588C370.941 74.8276 370.921 74.7988 370.904 74.7673C370.377 73.8355 369.641 73.0495 368.771 72.4684L368.78 72.4641L354.751 63.1171L355.117 64.9213C356.007 69.3185 353.181 73.6024 348.803 74.4893Z" fill="#0D4FE0"/>
<path d="M353.367 56.2879L354.749 63.1055L361.536 61.7305C365.284 60.9711 367.704 57.303 366.941 53.5379C366.178 49.7728 362.522 47.3363 358.773 48.0957C355.025 48.8551 352.605 52.5232 353.367 56.2879Z" fill="#7B78FB"/>
<path d="M392.786 72.9378L393.606 76.9876C394.339 80.6038 397.911 82.9602 401.544 82.2242C405.176 81.4883 407.549 77.9276 406.816 74.3113L402.779 54.3864C402.779 54.3848 402.779 54.384 402.778 54.3828C403.119 56.0675 402.818 57.8807 401.793 59.4181L392.786 72.9378Z" fill="#7B78FB"/>
<path d="M392.593 71.9878L392.785 72.9373L392.786 72.9381L401.793 59.4184C402.817 57.8813 403.119 56.0678 402.778 54.3826C402.733 54.1592 402.677 53.9399 402.61 53.7254C402.608 53.7177 402.604 53.7114 402.602 53.7019C401.654 50.7011 398.69 48.7456 395.543 49.0456C395.535 49.0465 395.527 49.0465 395.52 49.0471C395.295 49.0693 395.07 49.1028 394.846 49.1483C394.808 49.1561 394.771 49.168 394.733 49.177C394.554 49.2161 394.376 49.2591 394.203 49.3122C394.114 49.3389 394.027 49.3751 393.938 49.4062C393.817 49.4493 393.693 49.4904 393.576 49.5392C393.506 49.569 393.44 49.6037 393.371 49.6361C393.234 49.6985 393.096 49.7619 392.963 49.8331C392.931 49.8498 392.903 49.87 392.872 49.8873C391.939 50.4141 391.154 51.1494 390.573 52.0205L390.569 52.0119L381.221 66.0394L383.025 65.674C387.422 64.7835 391.706 67.6108 392.593 71.9878Z" fill="#0D4FE0"/>
<path d="M374.392 67.4233L381.21 66.0421L379.835 59.2553C379.076 55.5072 375.408 53.0868 371.642 53.8497C367.877 54.6126 365.44 58.2696 366.2 62.0178C366.959 65.7667 370.627 68.1862 374.392 67.4233Z" fill="#7B78FB"/>
<path d="M328.968 53.9587C326.931 57.0461 327.782 61.2494 330.86 63.2997L347.853 74.6815L348.803 74.489C353.181 73.6021 356.007 69.3182 355.116 64.921L354.751 63.1168L338.267 52.0746C335.189 50.0242 331.005 50.872 328.968 53.9587Z" fill="#25D3FB"/>
<path d="M372.063 91.8235C375.15 93.8614 379.354 93.0097 381.404 89.931L392.785 72.9388L392.593 71.9889C391.706 67.6111 387.422 64.785 383.025 65.6758L381.221 66.0413L370.179 82.5251C368.128 85.6022 368.976 89.7865 372.063 91.8235Z" fill="#25D3FB"/>
<path d="M280.236 88.381L276.186 89.2015C272.57 89.9342 270.213 93.5057 270.949 97.1385C271.685 100.771 275.246 103.144 278.863 102.411L298.787 98.3744C298.789 98.3741 298.79 98.3734 298.791 98.3732C297.107 98.7132 295.293 98.4127 293.755 97.3887L280.236 88.381Z" fill="#7B78FB"/>
<path d="M281.186 88.1886L280.236 88.381L293.755 97.3891C295.293 98.4132 297.107 98.7136 298.791 98.3736C299.015 98.3282 299.234 98.2724 299.449 98.2051C299.456 98.2031 299.463 98.1993 299.471 98.1964C302.473 97.2496 304.428 94.2851 304.128 91.1386C304.127 91.1302 304.127 91.1223 304.127 91.115C304.105 90.8905 304.071 90.666 304.026 90.4409C304.018 90.403 304.005 90.3662 303.997 90.3288C303.958 90.149 303.914 89.9712 303.862 89.7989C303.834 89.7095 303.798 89.6219 303.768 89.534C303.724 89.4117 303.684 89.2883 303.634 89.1702C303.605 89.1008 303.57 89.0353 303.538 88.9664C303.475 88.8287 303.412 88.6902 303.341 88.5581C303.324 88.5268 303.304 88.4981 303.287 88.4667C302.76 87.5348 302.025 86.7488 301.154 86.1678L301.162 86.1635L287.134 76.8165L287.499 78.6207C288.391 83.0177 285.564 87.3016 281.186 88.1886Z" fill="#0D4FE0"/>
<path d="M285.751 69.9866L287.132 76.8042L293.919 75.4292C297.668 74.6697 300.088 71.0016 299.325 67.2366C298.562 63.4715 294.905 61.0349 291.156 61.7944C287.408 62.5539 284.988 66.2219 285.751 69.9866Z" fill="#7B78FB"/>
<path d="M325.169 86.6371L325.989 90.6868C326.722 94.3031 330.294 96.6594 333.926 95.9235C337.559 95.1875 339.931 91.6268 339.199 88.0106L335.162 68.0856C335.162 68.084 335.162 68.0832 335.161 68.082C335.502 69.7668 335.2 71.5799 334.176 73.1174L325.169 86.6371Z" fill="#7B78FB"/>
<path d="M324.976 85.6866L325.168 86.6361L325.168 86.6369L334.176 73.1171C335.201 71.58 335.502 69.7665 335.161 68.0814C335.116 67.8579 335.06 67.6388 334.993 67.4241C334.991 67.4164 334.987 67.4102 334.985 67.4008C334.038 64.3997 331.073 62.4443 327.926 62.7444C327.919 62.7452 327.91 62.7452 327.903 62.7458C327.68 62.7677 327.455 62.8014 327.23 62.847C327.192 62.8547 327.154 62.8668 327.117 62.8756C326.937 62.9149 326.76 62.9577 326.587 63.0109C326.498 63.0376 326.41 63.0739 326.322 63.1049C326.2 63.1481 326.077 63.1891 325.958 63.2381C325.889 63.2678 325.823 63.3026 325.754 63.3349C325.616 63.3974 325.478 63.4608 325.345 63.532C325.315 63.5485 325.285 63.5688 325.255 63.5861C324.322 64.1129 323.537 64.8481 322.956 65.7194L322.952 65.7107L313.604 79.7382L315.409 79.3726C319.806 78.4822 324.089 81.3096 324.976 85.6866Z" fill="#0D4FE0"/>
<path d="M306.775 81.1225L313.593 79.7413L312.218 72.9545C311.458 69.2064 307.791 66.7861 304.025 67.5489C300.26 68.3118 297.823 71.9689 298.583 75.717C299.342 79.4659 303.01 81.8853 306.775 81.1225Z" fill="#7B78FB"/>
<path d="M220.787 37.5387C218.749 40.6262 219.601 44.8291 222.679 46.8798L280.237 88.3806L281.186 88.1881C285.564 87.3012 288.391 83.0177 287.5 78.6201L287.134 76.816L230.086 35.6547C227.008 33.6043 222.824 34.4521 220.787 37.5387Z" fill="#25D3FB"/>
<path d="M304.446 105.522C307.533 107.56 311.737 106.708 313.787 103.63L325.169 86.6375L324.976 85.6876C324.089 81.3098 319.806 78.4837 315.409 79.3745L313.604 79.74L302.562 96.2239C300.512 99.3009 301.359 103.485 304.446 105.522Z" fill="#25D3FB"/>
</g>
</g>
</svg>
