<svg width="428" height="528" viewBox="0 0 428 528" fill="none" xmlns="http://www.w3.org/2000/svg">
<mask id="mask0_82_50" style="mask-type:alpha" maskUnits="userSpaceOnUse" x="0" y="0" width="428" height="528">
<rect width="428" height="528" fill="#D9D9D9"/>
</mask>
<g mask="url(#mask0_82_50)">
<path d="M-251.938 0H1668.06V175L-251.938 576V0Z" fill="#FBFBFF"/>
<g opacity="0.1">
<path d="M415.618 418.272L411.568 419.093C407.952 419.825 405.594 423.397 406.33 427.03C407.066 430.662 410.628 433.035 414.244 432.302L434.17 428.265C434.171 428.265 434.172 428.264 434.173 428.264C432.488 428.604 430.675 428.304 429.137 427.28L415.618 418.272Z" fill="#7B78FB"/>
<path d="M416.567 418.08L415.617 418.272L429.136 427.28C430.674 428.304 432.488 428.605 434.173 428.265C434.397 428.219 434.615 428.163 434.829 428.096C434.837 428.094 434.845 428.09 434.852 428.087C437.854 427.141 439.809 424.176 439.51 421.029C439.509 421.021 439.509 421.013 439.509 421.006C439.487 420.781 439.453 420.557 439.407 420.332C439.4 420.294 439.387 420.257 439.378 420.22C439.34 420.04 439.297 419.862 439.243 419.69C439.216 419.6 439.181 419.513 439.149 419.425C439.106 419.303 439.065 419.179 439.015 419.061C438.987 418.992 438.952 418.926 438.92 418.857C438.856 418.72 438.794 418.581 438.723 418.449C438.706 418.418 438.685 418.389 438.669 418.357C438.141 417.426 437.405 416.64 436.535 416.059L436.543 416.055L422.515 406.707L422.881 408.512C423.771 412.909 420.945 417.193 416.567 418.08Z" fill="#0D4FE0"/>
<path d="M421.131 399.878L422.512 406.696L429.299 405.321C433.048 404.561 435.468 400.893 434.705 397.128C433.942 393.363 430.286 390.927 426.537 391.686C422.788 392.445 420.368 396.114 421.131 399.878Z" fill="#7B78FB"/>
<path d="M396.731 397.549C394.694 400.637 395.546 404.84 398.624 406.891L415.617 418.272L416.567 418.08C420.944 417.193 423.771 412.909 422.88 408.512L422.515 406.708L406.03 395.666C402.953 393.615 398.769 394.463 396.731 397.549Z" fill="#25D3FB"/>
<path d="M347.854 432.001L343.804 432.822C340.187 433.554 337.831 437.126 338.567 440.759C339.303 444.391 342.864 446.764 346.48 446.031L366.405 441.995C366.406 441.994 366.407 441.994 366.409 441.993C364.724 442.333 362.91 442.033 361.373 441.009L347.854 432.001Z" fill="#7B78FB"/>
<path d="M348.803 431.809L347.854 432.001L361.373 441.009C362.91 442.033 364.724 442.334 366.409 441.994C366.633 441.948 366.851 441.893 367.065 441.825C367.074 441.823 367.08 441.819 367.088 441.817C370.09 440.87 372.046 437.905 371.746 434.759C371.745 434.75 371.745 434.742 371.745 434.735C371.722 434.511 371.689 434.286 371.643 434.061C371.636 434.023 371.623 433.986 371.615 433.949C371.575 433.769 371.532 433.591 371.479 433.419C371.452 433.33 371.416 433.242 371.385 433.154C371.341 433.032 371.301 432.908 371.251 432.79C371.222 432.721 371.187 432.655 371.156 432.586C371.093 432.449 371.03 432.31 370.958 432.178C370.942 432.147 370.922 432.118 370.905 432.087C370.378 431.155 369.642 430.369 368.771 429.788L368.78 429.783L354.752 420.436L355.117 422.241C356.008 426.638 353.181 430.922 348.803 431.809Z" fill="#0D4FE0"/>
<path d="M353.367 413.607L354.749 420.425L361.536 419.05C365.284 418.29 367.704 414.622 366.941 410.857C366.178 407.092 362.522 404.656 358.773 405.415C355.025 406.174 352.605 409.843 353.367 413.607Z" fill="#7B78FB"/>
<path d="M392.785 430.257L393.606 434.307C394.339 437.923 397.91 440.28 401.543 439.544C405.175 438.808 407.548 435.247 406.815 431.631L402.779 411.706C402.778 411.704 402.778 411.703 402.778 411.702C403.118 413.387 402.817 415.2 401.793 416.737L392.785 430.257Z" fill="#7B78FB"/>
<path d="M392.594 429.307L392.786 430.257L392.786 430.257L401.794 416.738C402.818 415.201 403.119 413.387 402.779 411.702C402.733 411.479 402.678 411.259 402.61 411.045C402.608 411.037 402.605 411.031 402.603 411.021C401.654 408.02 398.691 406.065 395.544 406.365C395.535 406.366 395.528 406.366 395.52 406.366C395.295 406.389 395.071 406.422 394.847 406.468C394.808 406.475 394.772 406.487 394.733 406.496C394.554 406.535 394.377 406.578 394.204 406.632C394.115 406.658 394.027 406.694 393.939 406.725C393.817 406.769 393.694 406.81 393.576 406.859C393.506 406.888 393.44 406.923 393.372 406.955C393.234 407.018 393.096 407.081 392.963 407.152C392.932 407.169 392.903 407.189 392.872 407.207C391.94 407.733 391.155 408.469 390.573 409.34L390.569 409.331L381.222 423.359L383.025 422.993C387.423 422.103 391.707 424.93 392.594 429.307Z" fill="#0D4FE0"/>
<path d="M374.393 424.743L381.21 423.361L379.835 416.575C379.076 412.826 375.408 410.406 371.643 411.169C367.877 411.932 365.441 415.589 366.2 419.337C366.96 423.086 370.627 425.506 374.393 424.743Z" fill="#7B78FB"/>
<path d="M328.968 411.278C326.931 414.365 327.782 418.569 330.86 420.619L347.853 432.001L348.803 431.808C353.181 430.921 356.007 426.637 355.116 422.24L354.751 420.436L338.267 409.394C335.189 407.344 331.005 408.191 328.968 411.278Z" fill="#25D3FB"/>
<path d="M372.064 449.143C375.15 451.181 379.354 450.329 381.405 447.25L392.786 430.258L392.593 429.308C391.706 424.93 387.423 422.104 383.026 422.995L381.222 423.361L370.18 439.844C368.129 442.921 368.977 447.106 372.064 449.143Z" fill="#25D3FB"/>
<path d="M280.237 445.7L276.187 446.521C272.57 447.254 270.213 450.825 270.949 454.458C271.685 458.09 275.247 460.463 278.863 459.73L298.788 455.694C298.789 455.693 298.79 455.693 298.792 455.693C297.107 456.033 295.294 455.732 293.756 454.708L280.237 445.7Z" fill="#7B78FB"/>
<path d="M281.186 445.508L280.236 445.7L293.755 454.708C295.293 455.733 297.107 456.033 298.791 455.693C299.015 455.648 299.234 455.592 299.449 455.524C299.456 455.522 299.463 455.519 299.471 455.516C302.473 454.569 304.428 451.604 304.128 448.458C304.127 448.45 304.127 448.442 304.127 448.434C304.105 448.21 304.071 447.985 304.026 447.76C304.018 447.722 304.005 447.686 303.997 447.648C303.958 447.468 303.914 447.291 303.862 447.118C303.834 447.029 303.798 446.941 303.768 446.853C303.724 446.731 303.684 446.608 303.634 446.49C303.605 446.42 303.57 446.355 303.538 446.286C303.475 446.148 303.412 446.01 303.341 445.877C303.324 445.846 303.304 445.817 303.287 445.786C302.76 444.854 302.025 444.068 301.154 443.487L301.162 443.483L287.134 434.136L287.499 435.94C288.391 440.337 285.564 444.621 281.186 445.508Z" fill="#0D4FE0"/>
<path d="M285.75 427.306L287.132 434.124L293.918 432.749C297.667 431.989 300.087 428.321 299.324 424.556C298.561 420.791 294.905 418.354 291.156 419.114C287.407 419.873 284.988 423.541 285.75 427.306Z" fill="#7B78FB"/>
<path d="M325.168 443.956L325.989 448.006C326.721 451.622 330.293 453.979 333.926 453.243C337.558 452.507 339.931 448.946 339.198 445.33L335.161 425.405C335.161 425.403 335.161 425.403 335.161 425.401C335.501 427.086 335.2 428.899 334.176 430.437L325.168 443.956Z" fill="#7B78FB"/>
<path d="M324.976 443.006L325.168 443.955L325.168 443.956L334.176 430.436C335.201 428.899 335.502 427.086 335.161 425.401C335.116 425.177 335.06 424.958 334.993 424.743C334.991 424.736 334.987 424.73 334.985 424.72C334.038 421.719 331.073 419.764 327.926 420.064C327.919 420.065 327.91 420.065 327.903 420.065C327.68 420.087 327.455 420.121 327.23 420.166C327.192 420.174 327.154 420.186 327.117 420.195C326.937 420.234 326.76 420.277 326.587 420.33C326.498 420.357 326.41 420.393 326.322 420.424C326.2 420.467 326.077 420.508 325.958 420.557C325.889 420.587 325.823 420.622 325.754 420.654C325.616 420.717 325.478 420.78 325.345 420.851C325.315 420.868 325.285 420.888 325.255 420.905C324.322 421.432 323.537 422.167 322.956 423.039L322.952 423.03L313.604 437.057L315.409 436.692C319.806 435.802 324.089 438.629 324.976 443.006Z" fill="#0D4FE0"/>
<path d="M306.775 438.442L313.592 437.061L312.217 430.274C311.458 426.526 307.79 424.105 304.025 424.868C300.259 425.631 297.823 429.288 298.582 433.036C299.342 436.785 303.01 439.205 306.775 438.442Z" fill="#7B78FB"/>
<path d="M220.786 394.858C218.749 397.946 219.6 402.148 222.679 404.199L280.236 445.7L281.186 445.507C285.564 444.621 288.39 440.337 287.499 435.939L287.134 434.135L230.085 392.974C227.008 390.924 222.823 391.771 220.786 394.858Z" fill="#25D3FB"/>
<path d="M304.446 462.842C307.533 464.879 311.737 464.028 313.787 460.949L325.169 443.957L324.976 443.007C324.089 438.629 319.806 435.803 315.409 436.694L313.604 437.059L302.562 453.543C300.512 456.62 301.359 460.805 304.446 462.842Z" fill="#25D3FB"/>
</g>
</g>
</svg>
