<svg width="1920" height="576" viewBox="0 0 1920 576" fill="none" xmlns="http://www.w3.org/2000/svg">
<path d="M0 0H1920V175L0 576V0Z" fill="#7B78FB"/>
<mask id="mask0_1_3" style="mask-type:alpha" maskUnits="userSpaceOnUse" x="0" y="0" width="1920" height="576">
<path d="M0 0H1920V175L0 576V0Z" fill="#13263E"/>
</mask>
<g mask="url(#mask0_1_3)">
<g filter="url(#filter0_f_1_3)">
<path d="M1919.94 -314.54C1873.8 -360.487 1798.28 -360.487 1752.13 -314.54L1496.32 -61.0822V-44.0306C1496.32 34.6143 1560.35 98.3689 1639.34 98.3689H1671.75L1919.94 -147.481C1966.07 -193.411 1966.07 -268.594 1919.94 -314.54Z" fill="#25D3FB"/>
<path d="M1496.31 -61.0823V-133.845C1496.31 -198.812 1442.92 -251.973 1377.65 -251.973C1312.39 -251.973 1259 -198.817 1259 -133.845V224.1V224.167C1259.03 193.905 1270.55 163.657 1293.61 140.713L1496.31 -61.0823Z" fill="#7B78FB"/>
<path d="M1496.31 -44.0309V-61.0721L1293.61 140.718C1270.55 163.662 1259.03 193.91 1259 224.173C1259 228.2 1259.22 232.17 1259.62 236.093C1259.63 236.238 1259.66 236.383 1259.69 236.529C1265.53 291.628 1309.84 335.749 1365.2 341.575C1365.35 341.575 1365.47 341.611 1365.62 341.627C1369.56 342.016 1373.55 342.228 1377.6 342.228C1378.27 342.228 1378.95 342.145 1379.64 342.135C1382.87 342.078 1386.08 341.948 1389.26 341.648C1390.89 341.477 1392.53 341.16 1394.16 340.938C1396.41 340.621 1398.68 340.352 1400.89 339.906C1402.19 339.657 1403.46 339.279 1404.75 338.978C1407.34 338.362 1409.96 337.776 1412.5 336.983C1413.09 336.802 1413.66 336.568 1414.25 336.371C1432.18 330.535 1448.3 320.6 1461.39 307.601L1461.41 307.772L1671.75 98.3686H1639.35C1560.34 98.3634 1496.31 34.6089 1496.31 -44.0309Z" fill="#0D4FE0"/>
<path d="M1794.44 98.3633H1671.96V220.285C1671.96 287.637 1726.8 342.212 1794.44 342.212C1862.07 342.212 1916.92 287.637 1916.92 220.285C1916.92 152.949 1862.08 98.3633 1794.44 98.3633Z" fill="#7B78FB"/>
</g>
<g filter="url(#filter1_f_1_3)">
<path d="M1200.94 -196.54C1154.8 -242.487 1079.28 -242.487 1033.13 -196.54L777.318 56.9178V73.9694C777.318 152.614 841.348 216.369 920.345 216.369H952.748L1200.94 -29.4808C1247.07 -75.4114 1247.07 -150.594 1200.94 -196.54Z" fill="#25D3FB"/>
<path d="M777.308 56.9177V-15.8447C777.308 -80.812 723.919 -133.973 658.646 -133.973C593.394 -133.973 540 -80.8172 540 -15.8447V342.1V342.167C540.026 311.905 551.553 281.657 574.606 258.713L777.308 56.9177Z" fill="#7B78FB"/>
<path d="M777.308 73.9691V56.9279L574.606 258.718C551.553 281.662 540.026 311.91 540 342.173C540 346.2 540.218 350.17 540.617 354.093C540.627 354.238 540.658 354.383 540.689 354.529C546.525 409.628 590.839 453.749 646.197 459.575C646.347 459.575 646.467 459.611 646.617 459.627C650.556 460.016 654.547 460.228 658.6 460.228C659.268 460.228 659.952 460.145 660.637 460.135C663.871 460.078 667.084 459.948 670.261 459.648C671.889 459.477 673.526 459.16 675.159 458.938C677.414 458.621 679.678 458.352 681.886 457.906C683.187 457.657 684.457 457.279 685.748 456.978C688.344 456.362 690.962 455.776 693.496 454.983C694.087 454.802 694.662 454.568 695.248 454.371C713.175 448.535 729.304 438.6 742.386 425.601L742.412 425.772L952.754 216.369H920.35C841.343 216.363 777.308 152.609 777.308 73.9691Z" fill="#0D4FE0"/>
<path d="M1075.44 216.363H952.956V338.285C952.956 405.637 1007.8 460.212 1075.44 460.212C1143.07 460.212 1197.92 405.637 1197.92 338.285C1197.92 270.949 1143.08 216.363 1075.44 216.363Z" fill="#7B78FB"/>
</g>
<g filter="url(#filter2_f_1_3)">
<path d="M772.941 316.46C726.797 270.513 651.278 270.513 605.135 316.46L349.318 569.918V586.969C349.318 665.614 413.348 729.369 492.345 729.369H524.748L772.941 483.519C819.068 437.589 819.068 362.406 772.941 316.46Z" fill="#25D3FB"/>
<path d="M349.308 569.918V497.155C349.308 432.188 295.919 379.027 230.646 379.027C165.394 379.027 112 432.183 112 497.155V855.1V855.167C112.026 824.905 123.553 794.657 146.606 771.713L349.308 569.918Z" fill="#7B78FB"/>
<path d="M349.308 586.969V569.928L146.606 771.718C123.553 794.662 112.026 824.91 112 855.173C112 859.2 112.218 863.17 112.617 867.093C112.627 867.238 112.658 867.383 112.689 867.529C118.525 922.628 162.839 966.749 218.197 972.575C218.347 972.575 218.467 972.611 218.617 972.627C222.556 973.016 226.547 973.228 230.6 973.228C231.268 973.228 231.952 973.145 232.637 973.135C235.871 973.078 239.084 972.948 242.261 972.648C243.889 972.477 245.526 972.16 247.159 971.938C249.414 971.621 251.678 971.352 253.886 970.906C255.187 970.657 256.457 970.279 257.748 969.978C260.344 969.362 262.962 968.776 265.496 967.983C266.087 967.802 266.662 967.568 267.248 967.371C285.175 961.535 301.304 951.6 314.386 938.601L314.412 938.772L524.754 729.369H492.35C413.343 729.363 349.308 665.609 349.308 586.969Z" fill="#0D4FE0"/>
</g>
<g filter="url(#filter3_f_1_3)">
<path d="M401.941 -254.54C355.797 -300.487 280.278 -300.487 234.135 -254.54L-21.6816 -1.08218V15.9694C-21.6816 94.6143 42.3476 158.369 121.345 158.369H153.748L401.941 -87.4808C448.068 -133.411 448.068 -208.594 401.941 -254.54Z" fill="#25D3FB"/>
<path d="M-21.6917 15.9691V-1.07214L-224.394 200.718C-247.447 223.662 -258.974 253.91 -259 284.173C-259 288.2 -258.782 292.17 -258.383 296.093C-258.373 296.238 -258.342 296.383 -258.311 296.529C-252.475 351.628 -208.161 395.749 -152.803 401.575C-152.653 401.575 -152.533 401.611 -152.383 401.627C-148.444 402.016 -144.453 402.228 -140.4 402.228C-139.732 402.228 -139.048 402.145 -138.363 402.135C-135.129 402.078 -131.916 401.948 -128.739 401.648C-127.111 401.477 -125.474 401.16 -123.841 400.938C-121.586 400.621 -119.322 400.352 -117.114 399.906C-115.813 399.657 -114.543 399.279 -113.252 398.978C-110.656 398.362 -108.038 397.776 -105.504 396.983C-104.913 396.802 -104.338 396.568 -103.752 396.371C-85.8246 390.535 -69.6955 380.6 -56.614 367.601L-56.588 367.772L153.754 158.369H121.35C42.3427 158.363 -21.6917 94.6089 -21.6917 15.9691Z" fill="#0D4FE0"/>
<path d="M276.437 158.363H153.956V280.285C153.956 347.637 208.801 402.212 276.437 402.212C344.074 402.212 398.919 347.637 398.919 280.285C398.924 212.949 344.079 158.363 276.437 158.363Z" fill="#7B78FB"/>
</g>
</g>
<defs>
<filter id="filter0_f_1_3" x="1045" y="-563" width="1123.54" height="1119.23" filterUnits="userSpaceOnUse" color-interpolation-filters="sRGB">
<feFlood flood-opacity="0" result="BackgroundImageFix"/>
<feBlend mode="normal" in="SourceGraphic" in2="BackgroundImageFix" result="shape"/>
<feGaussianBlur stdDeviation="107" result="effect1_foregroundBlur_1_3"/>
</filter>
<filter id="filter1_f_1_3" x="326" y="-445" width="1123.54" height="1119.23" filterUnits="userSpaceOnUse" color-interpolation-filters="sRGB">
<feFlood flood-opacity="0" result="BackgroundImageFix"/>
<feBlend mode="normal" in="SourceGraphic" in2="BackgroundImageFix" result="shape"/>
<feGaussianBlur stdDeviation="107" result="effect1_foregroundBlur_1_3"/>
</filter>
<filter id="filter2_f_1_3" x="-102" y="68" width="1123.54" height="1119.23" filterUnits="userSpaceOnUse" color-interpolation-filters="sRGB">
<feFlood flood-opacity="0" result="BackgroundImageFix"/>
<feBlend mode="normal" in="SourceGraphic" in2="BackgroundImageFix" result="shape"/>
<feGaussianBlur stdDeviation="107" result="effect1_foregroundBlur_1_3"/>
</filter>
<filter id="filter3_f_1_3" x="-473" y="-503" width="1123.54" height="1119.23" filterUnits="userSpaceOnUse" color-interpolation-filters="sRGB">
<feFlood flood-opacity="0" result="BackgroundImageFix"/>
<feBlend mode="normal" in="SourceGraphic" in2="BackgroundImageFix" result="shape"/>
<feGaussianBlur stdDeviation="107" result="effect1_foregroundBlur_1_3"/>
</filter>
</defs>
</svg>
