<svg width="1920" height="576" viewBox="0 0 1920 576" fill="none" xmlns="http://www.w3.org/2000/svg">
<path d="M0 0H1920V175L0 576V0Z" fill="#FBFBFF"/>
<g opacity="0.1">
<path d="M1807.85 163.81L1797.8 165.847C1788.82 167.666 1782.97 176.532 1784.8 185.551C1786.62 194.569 1795.46 200.46 1804.44 198.641L1853.91 188.619C1853.91 188.619 1853.91 188.617 1853.92 188.616C1849.74 189.461 1845.23 188.715 1841.41 186.172L1807.85 163.81Z" fill="#7B78FB"/>
<path d="M1810.21 163.333L1807.85 163.81L1841.41 186.173C1845.23 188.716 1849.73 189.462 1853.92 188.618C1854.47 188.505 1855.02 188.366 1855.55 188.199C1855.57 188.194 1855.58 188.185 1855.6 188.178C1863.06 185.827 1867.91 178.468 1867.17 170.656C1867.16 170.635 1867.16 170.616 1867.16 170.597C1867.11 170.04 1867.02 169.483 1866.91 168.924C1866.89 168.83 1866.86 168.738 1866.84 168.645C1866.74 168.199 1866.64 167.758 1866.5 167.33C1866.44 167.108 1866.35 166.891 1866.27 166.673C1866.16 166.369 1866.06 166.063 1865.94 165.769C1865.87 165.597 1865.78 165.434 1865.7 165.263C1865.55 164.922 1865.39 164.578 1865.21 164.25C1865.17 164.172 1865.12 164.101 1865.08 164.023C1863.77 161.709 1861.94 159.758 1859.78 158.315L1859.8 158.305L1824.98 135.1L1825.88 139.579C1828.1 150.496 1821.08 161.131 1810.21 163.333Z" fill="#0D4FE0"/>
<path d="M1821.54 118.147L1824.97 135.072L1841.82 131.658C1851.13 129.773 1857.13 120.667 1855.24 111.32C1853.35 101.973 1844.27 95.9237 1834.96 97.8091C1825.66 99.6943 1819.65 108.801 1821.54 118.147Z" fill="#7B78FB"/>
<path d="M1919.4 159.482L1921.44 169.535C1923.26 178.513 1932.12 184.363 1941.14 182.536C1950.16 180.709 1956.05 171.869 1954.23 162.891L1944.21 113.426C1944.21 113.422 1944.21 113.421 1944.21 113.418C1945.05 117.6 1944.3 122.101 1941.76 125.918L1919.4 159.482Z" fill="#7B78FB"/>
<path d="M1918.92 157.123L1919.4 159.48L1919.4 159.482L1941.76 125.918C1944.3 122.102 1945.05 117.6 1944.21 113.417C1944.09 112.862 1943.96 112.317 1943.79 111.785C1943.78 111.766 1943.78 111.75 1943.77 111.727C1941.42 104.277 1934.06 99.4221 1926.25 100.167C1926.23 100.169 1926.21 100.169 1926.19 100.171C1925.63 100.226 1925.07 100.309 1924.52 100.422C1924.42 100.441 1924.33 100.471 1924.23 100.493C1923.79 100.59 1923.35 100.697 1922.92 100.829C1922.7 100.895 1922.48 100.985 1922.26 101.062C1921.96 101.169 1921.65 101.271 1921.36 101.392C1921.19 101.466 1921.02 101.553 1920.85 101.633C1920.51 101.788 1920.17 101.945 1919.84 102.122C1919.76 102.163 1919.69 102.214 1919.61 102.257C1917.3 103.564 1915.35 105.39 1913.91 107.552L1913.9 107.531L1890.69 142.355L1895.17 141.448C1906.08 139.237 1916.72 146.256 1918.92 157.123Z" fill="#0D4FE0"/>
<path d="M1873.74 145.791L1890.66 142.362L1887.25 125.513C1885.36 116.208 1876.26 110.2 1866.91 112.094C1857.56 113.988 1851.51 123.066 1853.4 132.371C1855.28 141.678 1864.39 147.685 1873.74 145.791Z" fill="#7B78FB"/>
<path d="M1760.97 112.365C1755.91 120.029 1758.02 130.464 1765.67 135.554L1807.85 163.81L1810.21 163.333C1821.08 161.131 1828.1 150.496 1825.88 139.579L1824.98 135.1L1784.05 107.687C1776.41 102.597 1766.03 104.702 1760.97 112.365Z" fill="#25D3FB"/>
<path d="M1867.95 206.365C1875.62 211.424 1886.05 209.31 1891.14 201.667L1919.4 159.483L1918.92 157.125C1916.72 146.257 1906.09 139.24 1895.17 141.452L1890.69 142.359L1863.28 183.281C1858.19 190.92 1860.29 201.308 1867.95 206.365Z" fill="#25D3FB"/>
<path d="M1639.99 197.819L1629.93 199.856C1620.96 201.675 1615.11 210.542 1616.93 219.56C1618.76 228.578 1627.6 234.469 1636.58 232.65L1686.04 222.629C1686.05 222.628 1686.05 222.626 1686.05 222.626C1681.87 223.47 1677.37 222.724 1673.55 220.181L1639.99 197.819Z" fill="#7B78FB"/>
<path d="M1642.35 197.342L1639.99 197.819L1673.55 220.183C1677.37 222.725 1681.87 223.471 1686.05 222.627C1686.61 222.514 1687.15 222.376 1687.68 222.208C1687.7 222.204 1687.72 222.194 1687.74 222.187C1695.19 219.836 1700.05 212.477 1699.3 204.665C1699.3 204.644 1699.3 204.625 1699.3 204.607C1699.24 204.05 1699.16 203.492 1699.05 202.933C1699.03 202.839 1699 202.748 1698.97 202.655C1698.88 202.209 1698.77 201.767 1698.64 201.339C1698.57 201.118 1698.48 200.9 1698.41 200.682C1698.3 200.378 1698.2 200.072 1698.07 199.779C1698 199.607 1697.91 199.444 1697.84 199.273C1697.68 198.931 1697.52 198.587 1697.34 198.259C1697.3 198.182 1697.25 198.11 1697.21 198.032C1695.9 195.719 1694.08 193.767 1691.92 192.325L1691.94 192.314L1657.11 169.11L1658.02 173.589C1660.23 184.505 1653.21 195.14 1642.35 197.342Z" fill="#0D4FE0"/>
<path d="M1653.68 152.156L1657.11 169.081L1673.96 165.667C1683.26 163.782 1689.27 154.676 1687.38 145.329C1685.48 135.981 1676.4 129.933 1667.1 131.818C1657.79 133.704 1651.78 142.81 1653.68 152.156Z" fill="#7B78FB"/>
<path d="M1751.54 193.491L1753.57 203.545C1755.39 212.522 1764.26 218.372 1773.28 216.545C1782.29 214.718 1788.18 205.878 1786.37 196.901L1776.34 147.436C1776.34 147.432 1776.34 147.43 1776.34 147.427C1777.19 151.609 1776.44 156.11 1773.9 159.927L1751.54 193.491Z" fill="#7B78FB"/>
<path d="M1751.06 191.132L1751.53 193.489L1751.54 193.491L1773.9 159.927C1776.44 156.111 1777.19 151.609 1776.34 147.426C1776.23 146.871 1776.09 146.327 1775.93 145.794C1775.92 145.775 1775.91 145.759 1775.91 145.736C1773.55 138.285 1766.19 133.431 1758.38 134.176C1758.36 134.178 1758.34 134.178 1758.32 134.18C1757.77 134.234 1757.21 134.318 1756.65 134.431C1756.56 134.45 1756.46 134.48 1756.37 134.502C1755.93 134.599 1755.49 134.706 1755.06 134.838C1754.83 134.904 1754.62 134.994 1754.4 135.071C1754.1 135.178 1753.79 135.28 1753.5 135.402C1753.32 135.475 1753.16 135.562 1752.99 135.642C1752.65 135.797 1752.3 135.955 1751.97 136.132C1751.9 136.172 1751.83 136.223 1751.75 136.266C1749.43 137.574 1747.49 139.399 1746.04 141.562L1746.03 141.54L1722.83 176.364L1727.31 175.457C1738.22 173.246 1748.86 180.266 1751.06 191.132Z" fill="#0D4FE0"/>
<path d="M1705.87 179.8L1722.8 176.371L1719.38 159.523C1717.5 150.218 1708.39 144.209 1699.05 146.103C1689.7 147.997 1683.65 157.076 1685.53 166.381C1687.42 175.688 1696.53 181.694 1705.87 179.8Z" fill="#7B78FB"/>
<path d="M1492.4 71.6009C1487.34 79.2658 1489.46 89.6998 1497.1 94.7907L1639.99 197.819L1642.35 197.342C1653.21 195.14 1660.23 184.506 1658.02 173.588L1657.11 169.109L1515.49 66.9237C1507.85 61.8335 1497.46 63.9381 1492.4 71.6009Z" fill="#25D3FB"/>
<path d="M1700.09 240.375C1707.75 245.434 1718.19 243.319 1723.28 235.676L1751.54 193.492L1751.06 191.134C1748.86 180.266 1738.22 173.249 1727.31 175.461L1722.83 176.368L1695.41 217.291C1690.32 224.929 1692.43 235.317 1700.09 240.375Z" fill="#25D3FB"/>
</g>
</svg>
