<svg width="30" height="30" viewBox="0 0 30 30" fill="none" xmlns="http://www.w3.org/2000/svg">
<rect width="30" height="30" rx="15" fill="#7B78FB"/>
<path d="M13.4892 20C13.4091 20.0001 13.3324 19.9694 13.2761 19.9148L8.58828 15.4143C8.53184 15.3601 8.5 15.2865 8.5 15.2098C8.5 15.1331 8.53184 15.0595 8.58828 15.0053L9.94179 13.7058V13.7057C10.0595 13.5928 10.2502 13.5928 10.3679 13.7057L13.4892 16.7036L20.3826 10.0846C20.5004 9.9718 20.6909 9.9718 20.8087 10.0846L22.1618 11.3841C22.2794 11.4971 22.2794 11.6803 22.1618 11.7933L13.7023 19.9152C13.6459 19.9697 13.5692 20.0002 13.4893 20L13.4892 20Z" fill="white"/>
</svg>
