<?xml version="1.0" encoding="UTF-8" standalone="no"?>
<svg
   width="48"
   height="48"
   viewBox="0 0 48 48"
   fill="none"
   stroke="currentColor"
   stroke-width="1.5"
   stroke-linecap="round"
   stroke-linejoin="round"
   class="feather feather-mail"
   version="1.1"
   id="svg6"
   sodipodi:docname="calendar.svg"
   inkscape:version="1.1 (c68e22c387, 2021-05-23)"
   xmlns:inkscape="http://www.inkscape.org/namespaces/inkscape"
   xmlns:sodipodi="http://sodipodi.sourceforge.net/DTD/sodipodi-0.dtd"
   xmlns="http://www.w3.org/2000/svg"
   xmlns:svg="http://www.w3.org/2000/svg">
  <defs
     id="defs10" />
  <sodipodi:namedview
     id="namedview8"
     pagecolor="#ffffff"
     bordercolor="#666666"
     borderopacity="1.0"
     inkscape:pageshadow="2"
     inkscape:pageopacity="0.0"
     inkscape:pagecheckerboard="0"
     showgrid="false"
     inkscape:zoom="6.8020833"
     inkscape:cx="24.918836"
     inkscape:cy="12.937213"
     inkscape:window-width="1600"
     inkscape:window-height="831"
     inkscape:window-x="0"
     inkscape:window-y="32"
     inkscape:window-maximized="1"
     inkscape:current-layer="svg6"
     width="48px" />
  <g
     id="g28071"
     transform="matrix(2.0947137,0,0,2.0947137,-0.13251184,-0.06446374)">
    <rect
       style="fill:none;stroke:none"
       id="rect1251"
       width="23.792931"
       height="23.85528"
       x="0.12104703"
       y="0.058886394" />
    <path
       style="fill:#f2f2f2;stroke:none;stroke-width:0.0644429"
       d="m 0.87316057,6.982861 v 13.882453 c 0,1.039641 0.79862983,1.881745 1.78562803,1.881745 H 20.514943 c 0.98612,0 1.785628,-0.84206 1.785628,-1.881745 V 6.982861 Z"
       id="path1661" />
    <g
       id="g1667"
       style="fill:#7b78fb;fill-opacity:1;stroke:none"
       transform="matrix(0.04185033,0,0,0.04410306,0.87316057,0.16889417)">
      <polygon
         style="fill:#7b78fb;fill-opacity:1;stroke:none"
         points="157.504,427.333 157.504,276.667 122.08,276.667 122.08,241.253 197.419,241.253 197.419,427.333 "
         id="polygon1663" />
      <path
         style="fill:#7b78fb;fill-opacity:1;stroke:none"
         d="m 312.96,429.467 c -25.728,0 -44.981,-8.736 -57.771,-26.219 -12.768,-17.483 -19.168,-40.821 -19.168,-70.016 0,-29.173 6.4,-52.544 19.168,-70.016 12.789,-17.461 32.043,-26.219 57.771,-26.219 25.728,0 45.003,8.757 57.771,26.219 12.789,17.483 19.168,40.843 19.168,70.016 0,29.195 -6.379,52.544 -19.168,70.016 -12.768,17.472 -32.043,26.219 -57.771,26.219 M 285.547,288.368 c -5.856,11.349 -8.789,26.357 -8.789,44.992 0,18.613 2.933,33.632 8.789,44.992 5.856,11.36 14.997,17.045 27.413,17.045 12.416,0 21.557,-5.685 27.435,-17.045 5.856,-11.349 8.768,-26.379 8.768,-44.992 0,-18.635 -2.912,-33.632 -8.768,-44.992 -5.877,-11.339 -15.019,-17.056 -27.435,-17.056 -12.416,0 -21.568,5.717 -27.413,17.056"
         id="path1665" />
    </g>
    <path
       style="fill:#25d3fb;fill-opacity:1;stroke:none;stroke-width:0.0644429"
       d="M 20.514901,1.5103328 H 2.6587886 c -0.9861193,0 -1.78562803,0.8425449 -1.78562803,1.8817453 V 6.9857277 H 22.30053 V 3.3920781 c 0,-1.0392004 -0.799509,-1.8817453 -1.785629,-1.8817453"
       id="path1669" />
    <g
       id="g1675"
       style="stroke:none"
       transform="matrix(0.04185033,0,0,0.04410306,0.87316057,0.16889417)">
      <path
         style="fill:#ffffff;stroke:none"
         d="m 444.213,92.475 c 0,16.672 -13.504,30.187 -30.187,30.187 -16.672,0 -30.165,-13.515 -30.165,-30.187 0,-16.672 13.504,-30.187 30.165,-30.187 16.683,0 30.187,13.515 30.187,30.187"
         id="path1671" />
      <path
         style="fill:#ffffff;stroke:none"
         d="m 128.171,92.475 c 0,16.672 -13.525,30.187 -30.187,30.187 -16.662,0 -30.165,-13.515 -30.165,-30.187 0,-16.672 13.504,-30.187 30.165,-30.187 16.661,0 30.187,13.515 30.187,30.187"
         id="path1673" />
    </g>
    <g
       id="g1681"
       style="fill:#000000;fill-opacity:1;stroke:none"
       transform="matrix(0.04185033,0,0,0.04410306,0.87316057,0.16889417)">
      <path
         style="fill:#000000;fill-opacity:1;stroke:none"
         d="m 414.336,0.059 c -11.083,0 -20.085,8.981 -20.085,20.085 l -0.309,65.109 c 0,11.093 9.003,20.085 20.107,20.085 11.083,0 20.085,-8.992 20.085,-20.085 l 0.309,-65.109 C 434.443,9.04 425.44,0.059 414.336,0.059"
         id="path1677" />
      <path
         style="fill:#000000;fill-opacity:1;stroke:none"
         d="m 98.293,0.059 v 0 C 87.21,0.059 78.208,9.04 78.208,20.144 l -0.309,65.099 c 0,11.093 9.003,20.085 20.085,20.085 11.104,0 20.085,-8.992 20.085,-20.085 l 0.309,-65.109 C 118.379,9.04 109.397,0.059 98.293,0.059"
         id="path1679" />
    </g>
  </g>
  <g
     id="g1683"
     style="stroke:none"
     transform="matrix(0.04185033,0,0,0.04410306,0.87316057,0.16889417)" />
  <g
     id="g1685"
     style="stroke:none"
     transform="matrix(0.04185033,0,0,0.04410306,0.87316057,0.16889417)" />
  <g
     id="g1687"
     style="stroke:none"
     transform="matrix(0.04185033,0,0,0.04410306,0.87316057,0.16889417)" />
  <g
     id="g1689"
     style="stroke:none"
     transform="matrix(0.04185033,0,0,0.04410306,0.87316057,0.16889417)" />
  <g
     id="g1691"
     style="stroke:none"
     transform="matrix(0.04185033,0,0,0.04410306,0.87316057,0.16889417)" />
  <g
     id="g1693"
     style="stroke:none"
     transform="matrix(0.04185033,0,0,0.04410306,0.87316057,0.16889417)" />
  <g
     id="g1695"
     style="stroke:none"
     transform="matrix(0.04185033,0,0,0.04410306,0.87316057,0.16889417)" />
  <g
     id="g1697"
     style="stroke:none"
     transform="matrix(0.04185033,0,0,0.04410306,0.87316057,0.16889417)" />
  <g
     id="g1699"
     style="stroke:none"
     transform="matrix(0.04185033,0,0,0.04410306,0.87316057,0.16889417)" />
  <g
     id="g1701"
     style="stroke:none"
     transform="matrix(0.04185033,0,0,0.04410306,0.87316057,0.16889417)" />
  <g
     id="g1703"
     style="stroke:none"
     transform="matrix(0.04185033,0,0,0.04410306,0.87316057,0.16889417)" />
  <g
     id="g1705"
     style="stroke:none"
     transform="matrix(0.04185033,0,0,0.04410306,0.87316057,0.16889417)" />
  <g
     id="g1707"
     style="stroke:none"
     transform="matrix(0.04185033,0,0,0.04410306,0.87316057,0.16889417)" />
  <g
     id="g1709"
     style="stroke:none"
     transform="matrix(0.04185033,0,0,0.04410306,0.87316057,0.16889417)" />
  <g
     id="g1711"
     style="stroke:none"
     transform="matrix(0.04185033,0,0,0.04410306,0.87316057,0.16889417)" />
</svg>
