<?xml version="1.0" encoding="UTF-8" standalone="no"?>
<svg
   width="48"
   height="48"
   viewBox="0 0 48 48"
   fill="none"
   stroke="currentColor"
   stroke-width="1.5"
   stroke-linecap="round"
   stroke-linejoin="round"
   class="feather feather-mail"
   version="1.1"
   id="svg6"
   sodipodi:docname="lawkit.svg"
   inkscape:version="1.1 (c68e22c387, 2021-05-23)"
   xmlns:inkscape="http://www.inkscape.org/namespaces/inkscape"
   xmlns:sodipodi="http://sodipodi.sourceforge.net/DTD/sodipodi-0.dtd"
   xmlns="http://www.w3.org/2000/svg"
   xmlns:svg="http://www.w3.org/2000/svg">
  <defs
     id="defs10" />
  <sodipodi:namedview
     id="namedview8"
     pagecolor="#ffffff"
     bordercolor="#666666"
     borderopacity="1.0"
     inkscape:pageshadow="2"
     inkscape:pageopacity="0.0"
     inkscape:pagecheckerboard="0"
     showgrid="false"
     inkscape:zoom="9.6195985"
     inkscape:cx="22.402182"
     inkscape:cy="20.790889"
     inkscape:window-width="1600"
     inkscape:window-height="831"
     inkscape:window-x="0"
     inkscape:window-y="32"
     inkscape:window-maximized="1"
     inkscape:current-layer="svg6"
     width="48px" />
  <g
     id="g1385"
     transform="matrix(2.1033707,0,0,2.1033707,-71.836806,25.171391)">
    <g
       id="g946"
       transform="matrix(0.42715759,0,0,-0.42715759,55.662499,-10.407221)">
      <path
         d="m 0,0 c -3.443,3.428 -9.078,3.428 -12.521,0 l -19.088,-18.912 v -1.272 c 0,-5.868 4.778,-10.625 10.673,-10.625 h 2.418 L 0,-12.465 C 3.443,-9.038 3.443,-3.428 0,0"
         style="fill:#25d3fb;fill-opacity:1;fill-rule:nonzero;stroke:none"
         id="path948" />
    </g>
    <g
       id="g950"
       transform="matrix(0.42715759,0,0,-0.42715759,42.160517,-2.328988)">
      <path
         d="m 0,0 v 5.429 c 0,4.848 -3.984,8.814 -8.854,8.814 -4.869,0 -8.853,-3.966 -8.853,-8.814 v -26.708 -0.005 c 0.001,2.258 0.862,4.514 2.582,6.226 z"
         style="fill:#7b78fb;fill-opacity:1;fill-rule:nonzero;stroke:none"
         id="path952" />
    </g>
    <g
       id="g954"
       transform="matrix(0.42715759,0,0,-0.42715759,42.160517,-1.78543)">
      <path
         d="m 0,0 v 1.272 l -15.125,-15.057 c -1.72,-1.712 -2.581,-3.969 -2.582,-6.227 0,-0.3 0.016,-0.596 0.046,-0.889 0.001,-0.011 0.003,-0.022 0.004,-0.033 0.437,-4.111 3.743,-7.403 7.874,-7.837 0.011,0 0.02,-0.003 0.031,-0.004 0.294,-0.03 0.592,-0.045 0.894,-0.045 0.05,0 0.101,0.006 0.152,0.007 0.241,0.003 0.481,0.013 0.718,0.036 0.122,0.012 0.243,0.036 0.366,0.052 0.168,0.024 0.337,0.044 0.502,0.078 0.097,0.018 0.192,0.046 0.288,0.069 0.194,0.046 0.389,0.09 0.578,0.148 0.044,0.014 0.087,0.032 0.13,0.046 1.339,0.436 2.541,1.177 3.518,2.147 l 0.002,-0.013 15.695,15.625 H 10.673 C 4.778,-10.625 0,-5.868 0,0"
         style="fill:#0d4fe0;fill-opacity:1;fill-rule:nonzero;stroke:none"
         id="path956" />
    </g>
    <g
       id="g958"
       transform="matrix(0.42715759,0,0,-0.42715759,51.66268,2.75312)">
      <path
         d="m 0,0 h -9.139 v -9.098 c 0,-5.025 4.092,-9.097 9.139,-9.097 5.047,0 9.138,4.072 9.138,9.097 C 9.138,-4.073 5.047,0 0,0"
         style="fill:#7b78fb;fill-opacity:1;fill-rule:nonzero;stroke:none"
         id="path960" />
    </g>
  </g>
  <rect
     style="fill:none;stroke:none"
     id="rect1251"
     width="23.792931"
     height="23.85528"
     x="0.12104703"
     y="0.058886394" />
</svg>
