<?xml version="1.0" encoding="UTF-8" standalone="no"?>
<svg
   width="48"
   height="48"
   viewBox="0 0 48 48"
   fill="none"
   stroke="currentColor"
   stroke-width="1.5"
   stroke-linecap="round"
   stroke-linejoin="round"
   class="feather feather-mail"
   version="1.1"
   id="svg6"
   sodipodi:docname="search_illustration.svg"
   inkscape:version="1.1 (c68e22c387, 2021-05-23)"
   xmlns:inkscape="http://www.inkscape.org/namespaces/inkscape"
   xmlns:sodipodi="http://sodipodi.sourceforge.net/DTD/sodipodi-0.dtd"
   xmlns="http://www.w3.org/2000/svg"
   xmlns:svg="http://www.w3.org/2000/svg">
  <defs
     id="defs10" />
  <sodipodi:namedview
     id="namedview8"
     pagecolor="#ffffff"
     bordercolor="#666666"
     borderopacity="1.0"
     inkscape:pageshadow="2"
     inkscape:pageopacity="0.0"
     inkscape:pagecheckerboard="0"
     showgrid="false"
     inkscape:zoom="3.4010417"
     inkscape:cx="17.200613"
     inkscape:cy="17.641654"
     inkscape:window-width="1600"
     inkscape:window-height="831"
     inkscape:window-x="0"
     inkscape:window-y="32"
     inkscape:window-maximized="1"
     inkscape:current-layer="svg6"
     width="32px" />
  <g
     id="g1683"
     style="stroke:none"
     transform="matrix(0.04185033,0,0,0.04410306,0.87316057,0.16889417)">
</g>
  <g
     id="g1685"
     style="stroke:none"
     transform="matrix(0.04185033,0,0,0.04410306,0.87316057,0.16889417)">
</g>
  <g
     id="g1687"
     style="stroke:none"
     transform="matrix(0.04185033,0,0,0.04410306,0.87316057,0.16889417)">
</g>
  <g
     id="g1689"
     style="stroke:none"
     transform="matrix(0.04185033,0,0,0.04410306,0.87316057,0.16889417)">
</g>
  <g
     id="g1691"
     style="stroke:none"
     transform="matrix(0.04185033,0,0,0.04410306,0.87316057,0.16889417)">
</g>
  <g
     id="g1693"
     style="stroke:none"
     transform="matrix(0.04185033,0,0,0.04410306,0.87316057,0.16889417)">
</g>
  <g
     id="g1695"
     style="stroke:none"
     transform="matrix(0.04185033,0,0,0.04410306,0.87316057,0.16889417)">
</g>
  <g
     id="g1697"
     style="stroke:none"
     transform="matrix(0.04185033,0,0,0.04410306,0.87316057,0.16889417)">
</g>
  <g
     id="g1699"
     style="stroke:none"
     transform="matrix(0.04185033,0,0,0.04410306,0.87316057,0.16889417)">
</g>
  <g
     id="g1701"
     style="stroke:none"
     transform="matrix(0.04185033,0,0,0.04410306,0.87316057,0.16889417)">
</g>
  <g
     id="g1703"
     style="stroke:none"
     transform="matrix(0.04185033,0,0,0.04410306,0.87316057,0.16889417)">
</g>
  <g
     id="g1705"
     style="stroke:none"
     transform="matrix(0.04185033,0,0,0.04410306,0.87316057,0.16889417)">
</g>
  <g
     id="g1707"
     style="stroke:none"
     transform="matrix(0.04185033,0,0,0.04410306,0.87316057,0.16889417)">
</g>
  <g
     id="g1709"
     style="stroke:none"
     transform="matrix(0.04185033,0,0,0.04410306,0.87316057,0.16889417)">
</g>
  <g
     id="g1711"
     style="stroke:none"
     transform="matrix(0.04185033,0,0,0.04410306,0.87316057,0.16889417)">
</g>
  <g
     id="g27545"
     transform="matrix(1.7970823,0,0,1.7970823,-126.32771,5.0160482)">
    <path
       d="m 86.977018,13.878906 0.528767,-0.528816 2.183075,2.183076 -0.528766,0.528816 -0.528817,0.528767 -2.183075,-2.183076 z"
       fill="#dfe7f4"
       id="path1891"
       style="stroke:none;stroke-width:0.0747902" />
    <path
       d="m 89.162676,16.060906 -2.182749,-2.182748 -0.528696,0.528695 2.182748,2.182749 z"
       fill="#c7cfe1"
       id="path1893"
       style="fill:#9399a6;fill-opacity:1;stroke:none;stroke-width:0.0747787" />
    <path
       d="m 73.761993,0.66388052 c 1.76056,-1.76056082 4.191241,-2.85100162 6.871721,-2.85100162 5.36096,0 9.722724,4.3617633 9.722724,9.7227234 0,2.6804797 -1.090441,5.1111607 -2.851002,6.8717217 -1.760561,1.760561 -4.191242,2.851002 -6.871722,2.851002 -5.36096,0 -9.722723,-4.361764 -9.722723,-9.7227237 0,-2.6804801 1.090441,-5.1111609 2.851002,-6.87172178 z"
       fill="#47568c"
       id="path1895"
       style="fill:#7b78fb;fill-opacity:1;stroke:none;stroke-width:0.0747902" />
    <path
       d="m 70.910991,7.5356023 c 0,-2.6804801 1.090441,-5.1111609 2.851002,-6.87172178 L 87.505436,14.407324 c -1.760561,1.760561 -4.191242,2.851002 -6.871722,2.851002 -5.36096,0 -9.722723,-4.361764 -9.722723,-9.7227237 z"
       fill="#29376d"
       id="path1897"
       style="fill:#4e4bc6;fill-opacity:1;stroke:none;stroke-width:0.0747902" />
    <path
       d="m 74.819127,1.7210148 c 1.489671,-1.48967082 3.546401,-2.41233235 5.814587,-2.41233235 4.536324,0 8.22692,3.69059625 8.22692,8.22691985 0,2.2681867 -0.922661,4.3249167 -2.412332,5.8145877 -1.489671,1.489671 -3.546401,2.412332 -5.814588,2.412332 -4.536323,0 -8.22692,-3.690596 -8.22692,-8.2269197 0,-2.2681868 0.922662,-4.3249167 2.412333,-5.8145875 z"
       fill="#f0f7ff"
       id="path1899"
       style="stroke:none;stroke-width:0.0747902" />
    <path
       d="m 72.406794,7.5356023 c 0,-2.2681868 0.922662,-4.3249167 2.412333,-5.8145875 L 86.448302,13.35019 c -1.489671,1.489671 -3.546401,2.412332 -5.814588,2.412332 -4.536323,0 -8.22692,-3.690596 -8.22692,-8.2269197 z"
       fill="#dfe7f4"
       id="path1901"
       style="stroke:none;stroke-width:0.0747902" />
    <path
       d="m 75.876261,2.778149 c 1.218781,-1.2188306 2.90156,-1.97366295 4.757453,-1.97366295 3.711737,0 6.731116,3.01937925 6.731116,6.73111625 0,1.8558933 -0.754832,3.5386727 -1.973663,4.7574527 -1.21883,1.218781 -2.901559,1.973663 -4.757453,1.973663 -3.711737,0 -6.731116,-3.019379 -6.731116,-6.7311157 0,-1.8558934 0.754832,-3.5386725 1.973663,-4.7574533 z"
       fill="#91e6a9"
       id="path1903"
       style="fill:#25d3fb;fill-opacity:1;stroke:none;stroke-width:0.0747902" />
    <path
       d="m 73.902598,7.5356023 c 0,-1.8558934 0.754832,-3.5386725 1.973663,-4.7574533 l 9.514906,9.514906 c -1.21878,1.218831 -2.901559,1.973663 -4.757453,1.973663 -3.711737,0 -6.731116,-3.019379 -6.731116,-6.7311157 z"
       fill="#26bfa6"
       id="path1905"
       style="fill:#01b1da;fill-opacity:1;stroke:none;stroke-width:0.0747902" />
    <path
       d="m 88.631277,15.533166 1.58635,-1.58635 5.565985,5.565835 c 0.874247,0.874248 0.874247,2.297006 7.48e-4,3.172749 l -3.49e-4,3.49e-4 -3.49e-4,3.49e-4 c -0.874995,0.87355 -2.299748,0.873699 -3.172749,-7.48e-4 l -5.565935,-5.565835 z"
       fill="#fabe2c"
       id="path1907"
       style="fill:#3a3a3a;fill-opacity:1;stroke:none;stroke-width:0.0747902" />
    <path
       d="m 92.610863,22.6854 -5.565935,-5.565835 1.586349,-1.586399 7.152684,7.152583 -3.49e-4,3.49e-4 c -0.874995,0.87355 -2.299798,0.873749 -3.172749,-6.98e-4 z"
       fill="#ff9100"
       id="path1909"
       style="fill:#000000;fill-opacity:1;stroke:none;stroke-width:0.0747902" />
    <g
       id="g1985"
       transform="matrix(0.04986012,0,0,0.04986012,55.889863,9.3905438)">
      <path
         d="m 551.87037,-92.80791 -10.605,-10.606 -60,60 -30,-30 -21.211,21.211 40.606,40.605 10.605,10.606 81.211,-81.211 z"
         fill="#f0f7ff"
         id="path1911"
         style="stroke:none" />
      <path
         d="m 470.61154,-11.586228 81.19895,-81.19895 10.60359,10.603586 -81.19895,81.19895 z"
         fill="#dfe7f4"
         id="path1913"
         style="stroke:none;stroke-width:1.49977" />
    </g>
  </g>
</svg>
